<svg 
 xmlns="http://www.w3.org/2000/svg"
 xmlns:xlink="http://www.w3.org/1999/xlink"
 width="600px" height="452px">
<path fill-rule="evenodd"  fill="rgb(0, 0, 0)"
 d="M425.517,451.963 C413.476,451.963 407.456,445.516 407.456,432.630 L407.456,384.111 L588.145,384.111 L588.145,0.004 C592.135,2.153 596.083,4.370 599.991,6.654 L599.991,451.963 L425.517,451.963 ZM588.145,395.391 L419.292,395.391 L419.292,426.388 C419.292,429.345 419.431,431.730 419.701,433.539 C419.963,435.350 420.567,436.791 421.507,437.865 C422.438,438.939 423.744,439.675 425.420,440.085 C427.094,440.487 429.333,440.683 432.143,440.683 L588.145,440.683 L588.145,395.391 ZM517.661,329.552 C510.957,329.552 505.521,324.103 505.521,317.379 C505.521,310.656 510.957,305.205 517.661,305.205 C524.367,305.205 529.801,310.656 529.801,317.379 C529.801,324.103 524.367,329.552 517.661,329.552 ZM467.108,311.618 C465.769,314.046 464.168,316.207 462.577,318.376 C462.051,319.095 461.633,319.923 461.080,320.613 C458.741,323.521 456.169,326.189 453.318,328.570 C450.559,330.876 447.618,332.996 444.556,334.987 C443.583,335.620 442.530,336.167 441.530,336.772 C439.204,338.190 436.892,339.621 434.413,340.875 C429.754,343.212 424.906,345.163 419.937,346.730 C408.861,350.224 396.808,351.001 385.259,351.001 C384.401,351.001 383.545,351.001 382.688,351.001 C381.744,351.001 380.800,351.001 379.856,351.001 C378.828,351.001 377.801,351.001 376.772,351.001 C375.663,351.001 374.553,351.001 373.443,351.001 C372.253,351.001 371.065,351.001 369.875,351.001 C368.611,351.001 367.346,351.001 366.080,351.001 C364.740,351.001 363.401,351.001 362.062,351.001 C360.652,351.001 359.242,351.001 357.832,351.001 C356.353,351.001 354.874,351.001 353.394,351.001 C351.850,351.001 350.306,351.001 348.760,351.001 C347.152,351.001 345.544,351.001 343.937,351.001 C342.269,351.001 340.600,351.001 338.932,351.001 C337.204,351.001 335.478,351.001 333.752,351.001 C331.970,351.001 330.188,351.001 328.406,351.001 C326.573,351.001 324.738,351.001 322.904,351.001 C321.020,351.001 319.134,351.001 317.250,351.001 C315.318,351.001 313.386,351.001 311.454,351.001 C309.479,351.001 307.501,351.001 305.526,351.001 C303.506,351.001 301.488,351.001 299.470,351.001 C297.412,351.001 295.353,351.001 293.295,351.001 C291.200,351.001 289.105,351.001 287.009,351.001 C284.881,351.001 282.751,351.001 280.623,351.001 C278.461,351.001 276.301,351.001 274.140,351.001 C271.951,351.001 269.761,351.001 267.572,351.001 C265.355,351.001 263.140,351.001 260.923,351.001 C258.683,351.001 256.445,351.001 254.205,351.001 C251.945,351.001 249.683,351.001 247.423,351.001 C245.145,351.001 242.865,351.001 240.587,351.001 C238.292,351.001 235.998,351.001 233.703,351.001 C231.396,351.001 229.088,351.001 226.780,351.001 C224.462,351.001 222.143,351.001 219.826,351.001 C217.500,351.001 215.174,351.001 212.847,351.001 C210.517,351.001 208.186,351.001 205.855,351.001 C203.521,351.001 201.188,351.001 198.855,351.001 C196.521,351.001 194.188,351.001 191.854,351.001 C189.523,351.001 187.193,351.001 184.863,351.001 C182.538,351.001 180.211,351.001 177.886,351.001 C175.569,351.001 173.252,351.001 170.935,351.001 C168.629,351.001 166.322,351.001 164.016,351.001 C161.723,351.001 159.430,351.001 157.137,351.001 C154.860,351.001 152.582,351.001 150.305,351.001 C148.047,351.001 145.788,351.001 143.529,351.001 C141.292,351.001 139.055,351.001 136.817,351.001 C134.604,351.001 132.391,351.001 130.177,351.001 C127.990,351.001 125.803,351.001 123.616,351.001 C121.458,351.001 119.300,351.001 117.142,351.001 C115.016,351.001 112.890,351.001 110.764,351.001 C108.673,351.001 106.582,351.001 104.491,351.001 C102.437,351.001 100.381,351.001 98.327,351.001 C96.313,351.001 94.297,351.001 92.283,351.001 C90.311,351.001 88.338,351.001 86.366,351.001 C84.439,351.001 82.511,351.001 80.585,351.001 C78.705,351.001 76.824,351.001 74.946,351.001 C73.116,351.001 71.286,351.001 69.458,351.001 C67.681,351.001 65.905,351.001 64.128,351.001 C62.407,351.001 60.686,351.001 58.965,351.001 C57.303,351.001 55.639,351.001 53.977,351.001 C52.376,351.001 50.773,351.001 49.172,351.001 C47.634,351.001 46.095,351.001 44.556,351.001 C43.085,351.001 41.612,351.001 40.140,351.001 C38.736,351.001 37.333,351.001 35.929,351.001 C34.598,351.001 33.266,351.001 31.934,351.001 C30.675,351.001 29.418,351.001 28.159,351.001 C26.979,351.001 25.797,351.001 24.616,351.001 C23.513,351.001 22.412,351.001 21.310,351.001 C20.290,351.001 19.269,351.001 18.250,351.001 C17.315,351.001 16.379,351.001 15.444,351.001 C14.596,351.001 13.747,351.001 12.898,351.001 C12.140,351.001 11.382,351.001 10.624,351.001 C9.959,351.001 9.292,351.001 8.627,351.001 C8.056,351.001 7.485,351.001 6.915,351.001 C6.443,351.001 5.970,351.001 5.497,351.001 C5.124,351.001 4.752,351.001 4.379,351.001 C4.111,351.001 3.842,351.001 3.572,351.001 C3.409,351.001 3.245,351.001 3.081,351.001 C3.074,351.001 2.268,351.001 0.924,351.001 L0.924,347.983 C0.924,345.224 0.972,342.476 1.028,339.729 L286.881,339.729 L286.881,266.250 L298.930,266.250 L298.930,339.729 L384.453,339.729 L384.453,213.299 C384.453,210.350 384.322,207.966 384.053,206.155 C383.783,204.346 383.212,202.904 382.346,201.831 C381.471,200.758 380.237,200.012 378.628,199.611 C377.028,199.209 374.953,199.004 372.411,199.004 L221.838,199.004 L221.838,187.733 L378.832,187.733 C390.074,187.733 395.694,194.180 395.694,207.057 L395.694,339.428 C401.495,338.619 408.513,337.926 414.062,336.042 C419.601,334.166 424.854,331.888 429.835,329.202 C438.833,324.369 446.176,318.226 451.882,310.778 C457.567,303.345 460.416,294.800 460.426,285.162 L460.426,240.908 L460.426,220.613 C460.430,220.539 474.644,220.539 474.644,220.539 L474.644,276.349 L474.644,285.114 C474.644,285.307 474.683,285.487 474.684,285.679 C474.020,294.994 471.412,303.633 467.223,311.376 C467.181,311.455 467.150,311.539 467.108,311.618 Z"/>
</svg>